<svg width="866" height="507" viewBox="0 0 866 507" fill="none" xmlns="http://www.w3.org/2000/svg">
<g id="Frame 1">
<rect width="866" height="507" fill="white"/>
<g id="Vector 1">
<path d="M99.2046 83.8473C170.399 -50.3146 256.33 75.9218 323.54 25.3841C516.476 -35.799 457.498 108.552 494.381 60.0967C531.264 11.6415 724.297 -1.79056 706.637 34.5191C688.976 70.8287 764.212 28.8178 739.424 91.1552C764.499 142.733 759.648 162.254 743.738 193.466C734.854 207.599 740.598 229.212 771.349 293.949C774.358 376.399 784.101 429.939 677.301 412.703C673.982 430.549 667.489 439.351 619.491 445.588C550.249 425.547 463.319 509.533 448.651 468.426C433.983 427.318 336.095 532.241 233.806 482.128C131.517 432.015 160.354 382.411 151.837 356.98C96.5027 274.874 99.2046 223.611 113.873 224.524C128.541 225.438 78.1984 146.418 99.2046 83.8473Z" fill="#C4C4C4"/>
<path d="M99.2046 83.8473C170.399 -50.3146 256.33 75.9218 323.54 25.3841C516.476 -35.799 457.498 108.552 494.381 60.0967C531.264 11.6415 724.297 -1.79056 706.637 34.5191C688.976 70.8287 764.212 28.8178 739.424 91.1552C764.499 142.733 759.648 162.254 743.738 193.466C734.854 207.599 740.598 229.212 771.349 293.949C774.358 376.399 784.101 429.939 677.301 412.703C673.982 430.549 667.489 439.351 619.491 445.588C550.249 425.547 463.319 509.533 448.651 468.426C433.983 427.318 336.095 532.241 233.806 482.128C131.517 432.015 160.354 382.411 151.837 356.98C96.5027 274.874 99.2046 223.611 113.873 224.524C128.541 225.438 78.1984 146.418 99.2046 83.8473Z" fill="url(#paint0_linear)"/>
<path d="M99.2046 83.8473C170.399 -50.3146 256.33 75.9218 323.54 25.3841C516.476 -35.799 457.498 108.552 494.381 60.0967C531.264 11.6415 724.297 -1.79056 706.637 34.5191C688.976 70.8287 764.212 28.8178 739.424 91.1552C764.499 142.733 759.648 162.254 743.738 193.466C734.854 207.599 740.598 229.212 771.349 293.949C774.358 376.399 784.101 429.939 677.301 412.703C673.982 430.549 667.489 439.351 619.491 445.588C550.249 425.547 463.319 509.533 448.651 468.426C433.983 427.318 336.095 532.241 233.806 482.128C131.517 432.015 160.354 382.411 151.837 356.98C96.5027 274.874 99.2046 223.611 113.873 224.524C128.541 225.438 78.1984 146.418 99.2046 83.8473Z" stroke="black"/>
</g>
</g>
<defs>
<linearGradient id="paint0_linear" x1="433.5" y1="10" x2="433.5" y2="496" gradientUnits="userSpaceOnUse">
<stop stop-color="#A555E4" stop-opacity="0.51"/>
<stop offset="0.0001" stop-color="#DD25E1" stop-opacity="0.53"/>
<stop offset="1" stop-color="#88FAEC" stop-opacity="0.61"/>
</linearGradient>
</defs>
</svg>
